<svg width="160" height="96" viewBox="0 0 160 96" fill="none" xmlns="http://www.w3.org/2000/svg">
<circle cx="30" cy="30" r="29.5" stroke="#7633FF"/>
<path d="M11.44 76.512H17.568V78.128H12.944V81.28H17.088V82.896H12.944V86.384H17.568V88H11.44V76.512ZM23.4433 79.824C23.9553 79.824 24.4353 79.9307 24.8833 80.144C25.3313 80.3467 25.7206 80.6773 26.0513 81.136C26.3393 80.7307 26.7019 80.4107 27.1393 80.176C27.5873 79.9413 28.1419 79.824 28.8033 79.824C29.1979 79.824 29.5926 79.8933 29.9873 80.032C30.3926 80.1707 30.7553 80.384 31.0753 80.672C31.3953 80.96 31.6513 81.328 31.8433 81.776C32.0459 82.2133 32.1473 82.7413 32.1473 83.36V88H30.6913V83.424C30.6913 83.0933 30.6379 82.8053 30.5313 82.56C30.4353 82.304 30.2966 82.0907 30.1153 81.92C29.9446 81.7387 29.7419 81.6053 29.5073 81.52C29.2726 81.424 29.0219 81.376 28.7553 81.376C28.5099 81.376 28.2753 81.4133 28.0513 81.488C27.8273 81.5627 27.6193 81.664 27.4273 81.792C27.2459 81.92 27.0913 82.0747 26.9633 82.256C26.8459 82.4373 26.7659 82.6347 26.7233 82.848V88H25.2673V83.424C25.2673 83.0933 25.2139 82.8053 25.1073 82.56C25.0113 82.304 24.8726 82.0907 24.6913 81.92C24.5206 81.7387 24.3179 81.6053 24.0833 81.52C23.8486 81.424 23.5979 81.376 23.3313 81.376C23.0859 81.376 22.8513 81.4133 22.6273 81.488C22.4033 81.5627 22.1953 81.6693 22.0033 81.808C21.8219 81.936 21.6673 82.0907 21.5393 82.272C21.4219 82.4533 21.3419 82.6507 21.2993 82.864V88H19.8433V80.016H21.2513V80.896C21.3579 80.5973 21.6033 80.3467 21.9873 80.144C22.3819 79.9307 22.8673 79.824 23.4433 79.824ZM39.4561 85.168C39.3281 84.944 39.0721 84.7787 38.6881 84.672C38.3041 84.5547 37.8935 84.496 37.4561 84.496C36.8481 84.496 36.3735 84.592 36.0321 84.784C35.7015 84.9653 35.5361 85.2267 35.5361 85.568C35.5361 85.888 35.6961 86.1493 36.0161 86.352C36.3468 86.544 36.8268 86.64 37.4561 86.64C37.6695 86.64 37.8775 86.6187 38.0801 86.576C38.2935 86.5333 38.4908 86.4747 38.6721 86.4C38.8535 86.3253 39.0135 86.2347 39.1521 86.128C39.2908 86.0213 39.3921 85.904 39.4561 85.776V85.168ZM34.5121 81.216C34.8108 80.8 35.2215 80.464 35.7441 80.208C36.2668 79.952 36.8481 79.824 37.4881 79.824C38.5548 79.824 39.3921 80.1013 40.0001 80.656C40.6081 81.2 40.9121 81.968 40.9121 82.96V88H39.5041V87.296C39.4081 87.4347 39.2748 87.5573 39.1041 87.664C38.9335 87.7707 38.7415 87.8667 38.5281 87.952C38.3255 88.0267 38.1121 88.0853 37.8881 88.128C37.6641 88.1707 37.4401 88.192 37.2161 88.192C36.2668 88.192 35.5041 87.968 34.9281 87.52C34.3628 87.0613 34.0801 86.4213 34.0801 85.6C34.0801 85.184 34.1601 84.816 34.3201 84.496C34.4908 84.176 34.7201 83.904 35.0081 83.68C35.2961 83.456 35.6321 83.2907 36.0161 83.184C36.4001 83.0667 36.8161 83.008 37.2641 83.008C37.4455 83.008 37.6375 83.024 37.8401 83.056C38.0535 83.0773 38.2561 83.1147 38.4481 83.168C38.6508 83.2213 38.8375 83.2907 39.0081 83.376C39.1788 83.4507 39.3281 83.5467 39.4561 83.664V83.28C39.4561 82.9493 39.3975 82.6667 39.2801 82.432C39.1628 82.1867 39.0081 81.9893 38.8161 81.84C38.6241 81.68 38.3948 81.5627 38.1281 81.488C37.8721 81.4133 37.6001 81.376 37.3121 81.376C36.8001 81.376 36.3361 81.4773 35.9201 81.68C35.5041 81.8827 35.1735 82.1493 34.9281 82.48L34.5121 81.216ZM43.4366 80.016H44.8926V88H43.4366V80.016ZM43.1006 77.424C43.1006 77.1253 43.202 76.8747 43.4046 76.672C43.618 76.4587 43.8686 76.352 44.1566 76.352C44.4553 76.352 44.706 76.4587 44.9086 76.672C45.122 76.8747 45.2286 77.1253 45.2286 77.424C45.2286 77.712 45.122 77.9627 44.9086 78.176C44.706 78.3787 44.4553 78.48 44.1566 78.48C43.8686 78.48 43.618 78.3787 43.4046 78.176C43.202 77.9627 43.1006 77.712 43.1006 77.424ZM47.4995 76.352H48.9555V88H47.4995V76.352Z" fill="#7633FF"/>
<path d="M21.5 38C21.1 38 20.75 37.85 20.45 37.55C20.15 37.25 20 36.9 20 36.5V23.5C20 23.1 20.15 22.75 20.45 22.45C20.75 22.15 21.1 22 21.5 22H38.5C38.9 22 39.25 22.15 39.55 22.45C39.85 22.75 40 23.1 40 23.5V36.5C40 36.9 39.85 37.25 39.55 37.55C39.25 37.85 38.9 38 38.5 38H21.5ZM38.5 24.875L30.4 30.175C30.3333 30.2083 30.2708 30.2375 30.2125 30.2625C30.1542 30.2875 30.0833 30.3 30 30.3C29.9167 30.3 29.8458 30.2875 29.7875 30.2625C29.7292 30.2375 29.6667 30.2083 29.6 30.175L21.5 24.875V36.5H38.5V24.875ZM30 28.95L38.4 23.5H21.625L30 28.95ZM21.5 24.875V25.05V24.0625V24.075V23.5V24.075V24.05V25.05V24.875V36.5V24.875Z" fill="#7633FF"/>
<circle cx="130" cy="30" r="29.5" stroke="#7633FF"/>
<path d="M120.64 86.016C120.459 86.3253 120.229 86.6133 119.952 86.88C119.675 87.1467 119.344 87.376 118.96 87.568C118.587 87.76 118.171 87.9093 117.712 88.016C117.253 88.1333 116.763 88.192 116.24 88.192C115.483 88.192 114.763 88.0533 114.08 87.776C113.408 87.488 112.816 87.0827 112.304 86.56C111.792 86.0373 111.387 85.4133 111.088 84.688C110.789 83.9627 110.64 83.152 110.64 82.256C110.64 81.36 110.789 80.5493 111.088 79.824C111.387 79.088 111.792 78.464 112.304 77.952C112.816 77.4293 113.408 77.0293 114.08 76.752C114.763 76.464 115.488 76.32 116.256 76.32C116.779 76.32 117.264 76.3787 117.712 76.496C118.171 76.6133 118.581 76.7733 118.944 76.976C119.307 77.168 119.621 77.3973 119.888 77.664C120.165 77.92 120.379 78.1867 120.528 78.464L120.064 79.808C119.712 79.2853 119.211 78.848 118.56 78.496C117.909 78.1333 117.168 77.952 116.336 77.952C115.717 77.952 115.152 78.0533 114.64 78.256C114.128 78.448 113.685 78.7307 113.312 79.104C112.949 79.4667 112.667 79.9147 112.464 80.448C112.261 80.9813 112.16 81.584 112.16 82.256C112.16 82.928 112.261 83.5307 112.464 84.064C112.667 84.5867 112.949 85.0347 113.312 85.408C113.685 85.7813 114.128 86.0693 114.64 86.272C115.152 86.464 115.717 86.56 116.336 86.56C117.253 86.56 118.032 86.3787 118.672 86.016C119.323 85.6427 119.829 85.1947 120.192 84.672L120.64 86.016ZM129.699 82.352C129.923 82.864 130.035 83.4187 130.035 84.016C130.035 84.6133 129.923 85.168 129.699 85.68C129.486 86.192 129.192 86.6347 128.819 87.008C128.456 87.3813 128.03 87.6747 127.539 87.888C127.059 88.0907 126.547 88.192 126.003 88.192C125.459 88.192 124.942 88.0907 124.451 87.888C123.96 87.6747 123.528 87.3813 123.155 87.008C122.792 86.6347 122.504 86.192 122.291 85.68C122.078 85.168 121.971 84.6133 121.971 84.016C121.971 83.4187 122.078 82.864 122.291 82.352C122.504 81.84 122.792 81.3973 123.155 81.024C123.528 80.6507 123.96 80.3573 124.451 80.144C124.942 79.9307 125.459 79.824 126.003 79.824C126.547 79.824 127.059 79.9307 127.539 80.144C128.03 80.3573 128.456 80.6507 128.819 81.024C129.192 81.3973 129.486 81.84 129.699 82.352ZM123.427 84.016C123.427 84.4107 123.491 84.7733 123.619 85.104C123.747 85.424 123.928 85.7013 124.163 85.936C124.398 86.16 124.67 86.336 124.979 86.464C125.288 86.5813 125.63 86.64 126.003 86.64C126.366 86.64 126.702 86.5813 127.011 86.464C127.331 86.336 127.608 86.16 127.843 85.936C128.078 85.7013 128.259 85.424 128.387 85.104C128.515 84.784 128.579 84.4267 128.579 84.032C128.579 83.6373 128.515 83.28 128.387 82.96C128.259 82.6293 128.078 82.3467 127.843 82.112C127.608 81.8773 127.331 81.696 127.011 81.568C126.702 81.44 126.366 81.376 126.003 81.376C125.63 81.376 125.288 81.44 124.979 81.568C124.67 81.696 124.398 81.8773 124.163 82.112C123.928 82.3467 123.747 82.6293 123.619 82.96C123.491 83.28 123.427 83.632 123.427 84.016ZM139.741 82.32C139.965 82.832 140.077 83.3973 140.077 84.016C140.077 84.6347 139.965 85.2 139.741 85.712C139.517 86.224 139.218 86.6667 138.845 87.04C138.472 87.4027 138.034 87.6853 137.533 87.888C137.042 88.0907 136.525 88.192 135.981 88.192C135.373 88.192 134.85 88.0907 134.413 87.888C133.976 87.6853 133.693 87.4347 133.565 87.136V91.408H132.109V80.016H133.517V80.864C133.645 80.5653 133.928 80.32 134.365 80.128C134.813 79.9253 135.341 79.824 135.949 79.824C136.504 79.824 137.032 79.9253 137.533 80.128C138.034 80.3307 138.472 80.6187 138.845 80.992C139.218 81.3547 139.517 81.7973 139.741 82.32ZM138.621 83.984C138.621 83.184 138.376 82.5493 137.885 82.08C137.394 81.6107 136.744 81.376 135.933 81.376C135.378 81.376 134.877 81.504 134.429 81.76C133.992 82.0053 133.704 82.32 133.565 82.704V85.312C133.704 85.696 133.992 86.016 134.429 86.272C134.877 86.5173 135.378 86.64 135.933 86.64C136.744 86.64 137.394 86.4 137.885 85.92C138.376 85.44 138.621 84.7947 138.621 83.984ZM140.944 80.016H142.576L145.024 85.888L147.456 80.016H149.072L144.32 91.408H142.704L144.24 87.696L140.944 80.016Z" fill="#7633FF"/>
<path d="M125 35C123.583 35 122.396 34.5208 121.438 33.5625C120.479 32.6042 120 31.4167 120 30C120 28.5833 120.479 27.3958 121.438 26.4375C122.396 25.4792 123.583 25 125 25H128.5C128.717 25 128.896 25.0708 129.038 25.2125C129.179 25.3542 129.25 25.5333 129.25 25.75C129.25 25.9667 129.179 26.1458 129.038 26.2875C128.896 26.4292 128.717 26.5 128.5 26.5H125C124 26.5 123.167 26.8333 122.5 27.5C121.833 28.1667 121.5 29 121.5 30C121.5 31 121.833 31.8333 122.5 32.5C123.167 33.1667 124 33.5 125 33.5H128.5C128.717 33.5 128.896 33.5708 129.038 33.7125C129.179 33.8542 129.25 34.0333 129.25 34.25C129.25 34.4667 129.179 34.6458 129.038 34.7875C128.896 34.9292 128.717 35 128.5 35H125ZM126.875 30.75C126.658 30.75 126.479 30.6792 126.337 30.5375C126.196 30.3958 126.125 30.2167 126.125 30C126.125 29.7833 126.196 29.6042 126.337 29.4625C126.479 29.3208 126.658 29.25 126.875 29.25H133.125C133.342 29.25 133.521 29.3208 133.663 29.4625C133.804 29.6042 133.875 29.7833 133.875 30C133.875 30.2167 133.804 30.3958 133.663 30.5375C133.521 30.6792 133.342 30.75 133.125 30.75H126.875ZM131.5 35C131.283 35 131.104 34.9292 130.962 34.7875C130.821 34.6458 130.75 34.4667 130.75 34.25C130.75 34.0333 130.821 33.8542 130.962 33.7125C131.104 33.5708 131.283 33.5 131.5 33.5H135C136 33.5 136.833 33.1667 137.5 32.5C138.167 31.8333 138.5 31 138.5 30C138.5 29 138.167 28.1667 137.5 27.5C136.833 26.8333 136 26.5 135 26.5H131.5C131.283 26.5 131.104 26.4292 130.962 26.2875C130.821 26.1458 130.75 25.9667 130.75 25.75C130.75 25.5333 130.821 25.3542 130.962 25.2125C131.104 25.0708 131.283 25 131.5 25H135C136.417 25 137.604 25.4792 138.562 26.4375C139.521 27.3958 140 28.5833 140 30C140 31.4167 139.521 32.6042 138.562 33.5625C137.604 34.5208 136.417 35 135 35H131.5Z" fill="#7633FF"/>
</svg>
