<svg width="175" height="126" viewBox="0 0 175 126" fill="none" xmlns="http://www.w3.org/2000/svg">
<g clip-path="url(#clip0_3539_19069)">
<path d="M13.66 17.4254C17.7167 17.4254 21.0054 14.1074 21.0054 10.0145C21.0054 5.92151 17.7167 2.60352 13.66 2.60352C9.60331 2.60352 6.31469 5.92151 6.31469 10.0145C6.31469 14.1074 9.60331 17.4254 13.66 17.4254Z" fill="#FF6584"/>
<path d="M59.0734 120.965C64.9165 123.407 71.1203 124.856 77.4327 125.252C80.3902 125.438 83.4035 125.447 86.3456 125.053C88.9236 124.707 91.5423 123.999 93.6913 122.465C95.8392 120.906 97.3514 118.611 97.9454 116.009C98.6026 113.267 98.326 110.394 97.3874 107.752C96.4187 105.018 94.8872 102.522 92.8937 100.427C91.1066 98.5817 88.6033 96.903 85.9265 97.2189C83.3535 97.5227 81.4823 99.6213 80.797 102.049C79.9754 104.96 80.9206 108.039 82.2025 110.66C84.3769 115.105 87.8665 118.836 91.9992 121.489C96.1567 124.175 100.936 125.72 105.866 125.973C110.806 126.197 116.119 125.042 120.011 121.821C122.061 120.141 123.525 117.843 124.189 115.263C124.88 112.541 124.699 109.666 124.101 106.945C122.803 101.037 119.373 95.9586 117.387 90.3037C116.895 88.9238 116.516 87.5054 116.254 86.0629C116.189 85.6928 115.63 85.8496 115.695 86.2184C116.722 92.0357 119.972 97.0445 122.105 102.462C124.048 107.397 125.205 113.455 122.326 118.273C119.737 122.608 114.594 124.72 109.798 125.26C105.108 125.787 100.307 124.939 96.0074 123.001C91.6801 121.05 87.8022 118.01 84.9888 114.149C83.4596 112.05 82.1423 109.673 81.4669 107.148C80.7755 104.562 80.9377 101.634 82.7665 99.5462C83.5738 98.5958 84.6977 97.9762 85.9265 97.804C87.2031 97.6428 88.4816 98.0036 89.6036 98.6053C92.0127 99.8972 93.8053 102.143 95.1886 104.465C96.6176 106.864 97.6245 109.583 97.7244 112.402C97.8173 115.022 97.1358 117.709 95.5743 119.831C92.3504 124.211 86.2914 124.742 81.3189 124.776C75.2241 124.814 69.1632 123.86 63.3697 121.95C61.9694 121.489 60.5887 120.972 59.2276 120.401C58.8833 120.257 58.7331 120.823 59.0734 120.965H59.0734Z" fill="#E4E4E5"/>
<path d="M43.9991 101.984L42.4419 99.5722C42.2604 99.2903 42.1971 98.9474 42.2658 98.6186C42.3346 98.2897 42.5299 98.0018 42.8088 97.818L52.2945 90.3788C52.5738 90.1956 52.9137 90.1318 53.2397 90.2012C53.5656 90.2706 53.8509 90.4676 54.0331 90.749L55.5903 93.1609C55.7719 93.4427 55.8352 93.7856 55.7664 94.1145C55.6976 94.4433 55.5023 94.7312 55.2234 94.915L45.7377 102.354C45.4584 102.537 45.1185 102.601 44.7925 102.532C44.4666 102.462 44.1813 102.265 43.9991 101.984Z" fill="#141414"/>
<path d="M42.819 97.8281L45.3208 96.4446C45.6131 96.2834 45.9569 96.2457 46.2766 96.3399C46.5964 96.4341 46.8661 96.6524 47.0265 96.9469L53.6692 109.022C53.829 109.317 53.8663 109.664 53.773 109.987C53.6796 110.309 53.4633 110.581 53.1714 110.743L50.6695 112.127C50.3772 112.288 50.0335 112.326 49.7137 112.232C49.394 112.137 49.1243 111.919 48.9638 111.625L42.3212 99.5491C42.1614 99.2542 42.1241 98.9074 42.2174 98.5847C42.3107 98.2621 42.5271 97.99 42.819 97.8281Z" fill="#141414"/>
<path d="M25.4295 75.6072C25.1108 75.6067 24.8042 75.484 24.5718 75.264C24.3394 75.0441 24.1985 74.7432 24.1777 74.4223L23.9912 71.55C23.9694 71.2145 24.0806 70.884 24.3003 70.6313C24.5201 70.3785 24.8303 70.2242 25.1628 70.2022L47.467 68.7284C47.8186 68.7052 48.1713 68.7521 48.5049 68.8664C48.8386 68.9806 49.1466 69.1601 49.4115 69.3945C49.6764 69.6289 49.8929 69.9137 50.0487 70.2325C50.2045 70.5513 50.2966 70.898 50.3196 71.2527C50.3426 71.6074 50.2962 71.9633 50.1829 72.2999C50.0696 72.6365 49.8918 72.9473 49.6594 73.2145C49.4271 73.4818 49.1449 73.7003 48.8289 73.8575C48.5129 74.0147 48.1693 74.1075 47.8177 74.1308L25.5135 75.6044C25.4854 75.6062 25.4574 75.6071 25.4295 75.6072Z" fill="#7633FF"/>
<path d="M29.8276 75.9771C29.5027 75.9766 29.1906 75.8492 28.9566 75.6217C28.7227 75.3942 28.5851 75.0843 28.5725 74.7567L28.4136 70.4665C28.4074 70.3002 28.4338 70.1342 28.4912 69.9781C28.5486 69.8221 28.636 69.6789 28.7482 69.5569C28.8604 69.4349 28.9954 69.3364 29.1454 69.267C29.2953 69.1976 29.4574 69.1587 29.6223 69.1525L47.9636 68.4608C48.2966 68.4483 48.6209 68.5697 48.8652 68.7984C49.1095 69.0271 49.2537 69.3443 49.2661 69.6803L49.4251 73.9705C49.4312 74.1368 49.4049 74.3028 49.3475 74.4589C49.2901 74.6149 49.2027 74.7581 49.0905 74.8801C48.9783 75.0021 48.8433 75.1006 48.6933 75.17C48.5433 75.2394 48.3813 75.2783 48.2164 75.2845L29.8751 75.9762C29.8592 75.9768 29.8433 75.9771 29.8276 75.9771Z" fill="#E4E4E5"/>
<path d="M59.2784 121.336V112.026C59.2784 103.898 55.764 96.104 49.4932 91.0026C44.8062 87.1896 38.0174 84.3383 28.292 84.9754L31.9969 70.0234L1.52588e-05 92.1116L31.3233 114.2L28.1236 100.097C28.1236 100.097 47.6585 96.3593 59.2784 121.336Z" fill="#141414"/>
<path d="M36.9013 106.62L34.5938 104.927C34.3246 104.729 34.1442 104.431 34.0922 104.099C34.0402 103.767 34.1208 103.428 34.3164 103.156L48.3 83.7521C48.4962 83.4805 48.7911 83.2985 49.1202 83.246C49.4492 83.1936 49.7854 83.2749 50.0551 83.4723L52.3626 85.165C52.6318 85.363 52.8122 85.6606 52.8641 85.9926C52.9161 86.3245 52.8355 86.6638 52.6399 86.9358L38.6564 106.34C38.4602 106.611 38.1652 106.793 37.8362 106.846C37.5071 106.898 37.1709 106.817 36.9013 106.62Z" fill="#141414"/>
<path d="M34.3298 103.162L36.1779 100.969C36.394 100.714 36.7018 100.555 37.0338 100.528C37.3658 100.5 37.695 100.607 37.949 100.825L48.4239 109.715C48.6775 109.933 48.8349 110.244 48.8618 110.579C48.8887 110.914 48.7827 111.246 48.5672 111.502L46.7191 113.695C46.5031 113.951 46.1953 114.11 45.8632 114.137C45.5312 114.164 45.2021 114.057 44.948 113.84L34.4731 104.949C34.2196 104.731 34.0621 104.421 34.0352 104.086C34.0084 103.751 34.1143 103.419 34.3298 103.162Z" fill="#141414"/>
<path d="M46.9875 63.9619C52.4321 63.9619 56.8457 59.5088 56.8457 54.0156C56.8457 48.5224 52.4321 44.0693 46.9875 44.0693C41.543 44.0693 37.1293 48.5224 37.1293 54.0156C37.1293 59.5088 41.543 63.9619 46.9875 63.9619Z" fill="#7633FF"/>
<path d="M42.6509 58.3959C42.3172 58.4029 41.9859 58.3378 41.6792 58.2049C41.4721 58.1057 41.2891 57.9621 41.1428 57.7841C40.9966 57.6061 40.8907 57.3979 40.8325 57.1742C40.7882 57.0159 40.7808 56.8494 40.8109 56.6877C40.841 56.5259 40.9077 56.3734 41.0058 56.2421C41.2633 55.9088 41.7079 55.7502 42.231 55.7908L40.9363 52.1342L41.3003 52.0029L42.8224 56.3017L42.4792 56.2231C42.0813 56.1324 41.5653 56.1523 41.3108 56.4818C41.2492 56.5669 41.2078 56.6652 41.1899 56.769C41.1721 56.8729 41.1782 56.9795 41.2078 57.0805C41.252 57.2468 41.3312 57.4016 41.44 57.5342C41.5488 57.6669 41.6846 57.7744 41.8382 57.8493C42.3762 58.0944 43.0061 58.0072 43.7139 57.8778L43.7828 58.2615C43.4102 58.3403 43.0314 58.3853 42.6509 58.3959Z" fill="#141414"/>
<path d="M39.1502 52.8523L37.1125 53.2842L37.192 53.6659L39.2297 53.234L39.1502 52.8523Z" fill="#141414"/>
<path d="M45.5819 51.489L43.5442 51.9209L43.6237 52.3026L45.6614 51.8707L45.5819 51.489Z" fill="#141414"/>
<path d="M55.2192 96.7035H38.5955C38.1599 96.703 37.7423 96.5282 37.4343 96.2174C37.1262 95.9067 36.953 95.4853 36.9525 95.0458L40.4327 68.1198C40.4354 67.6823 40.6097 67.2637 40.9174 66.9554C41.2251 66.6471 41.6413 66.4743 42.0749 66.4746H47.9744C50.3307 66.4773 52.5899 67.4229 54.2561 69.104C55.9223 70.7851 56.8596 73.0644 56.8622 75.4419V95.0458C56.8617 95.4853 56.6885 95.9067 56.3804 96.2174C56.0724 96.5282 55.6548 96.703 55.2192 96.7035Z" fill="#E4E4E5"/>
<path d="M29.2597 85.4605C29.0171 85.4607 28.7796 85.39 28.5759 85.2572C28.3722 85.1244 28.2109 84.9349 28.1113 84.7118L26.9436 82.0854C26.8761 81.9335 26.8389 81.7697 26.8341 81.6033C26.8293 81.4369 26.857 81.2712 26.9157 81.1156C26.9744 80.96 27.0629 80.8176 27.1762 80.6965C27.2894 80.5755 27.4252 80.4781 27.5758 80.41L47.9696 71.1795C48.2911 71.034 48.6378 70.9538 48.99 70.9435C49.3421 70.9332 49.6929 70.993 50.0222 71.1195C50.3514 71.2459 50.6528 71.4366 50.909 71.6805C51.1653 71.9245 51.3714 72.217 51.5156 72.5413C51.6598 72.8656 51.7393 73.2154 51.7495 73.5708C51.7597 73.9261 51.7004 74.2799 51.5751 74.6122C51.4498 74.9444 51.2608 75.2484 51.019 75.507C50.7772 75.7655 50.4873 75.9734 50.1659 76.1189L29.772 85.3495C29.6109 85.4226 29.4363 85.4605 29.2597 85.4605Z" fill="#7633FF"/>
<path d="M35.2082 84.1046C34.9656 84.1048 34.7282 84.0342 34.5244 83.9013C34.3207 83.7685 34.1594 83.5791 34.0599 83.3559L32.0653 78.8699C31.9293 78.5631 31.9195 78.2144 32.038 77.9003C32.1565 77.5862 32.3937 77.3324 32.6975 77.1945L49.4438 69.615C49.5943 69.5468 49.7567 69.5093 49.9216 69.5044C50.0865 69.4996 50.2508 69.5276 50.405 69.5868C50.5592 69.646 50.7004 69.7353 50.8204 69.8496C50.9404 69.9638 51.0369 70.1008 51.1044 70.2527L53.099 74.7386C53.1665 74.8905 53.2037 75.0543 53.2085 75.2207C53.2133 75.3871 53.1856 75.5528 53.1269 75.7084C53.0682 75.864 52.9797 76.0064 52.8664 76.1274C52.7532 76.2485 52.6174 76.3459 52.4668 76.414L35.7205 83.9936C35.5594 84.0667 35.3848 84.1045 35.2082 84.1046Z" fill="#E4E4E5"/>
<path d="M44.8002 47.7794C43.1951 47.1829 41.8757 48.7545 40.4213 49.1143C39.0298 49.4586 37.5308 48.6487 36.7876 47.4684C35.9205 46.0913 36.1353 44.3035 36.9241 42.9441C37.788 41.4552 39.3264 40.5416 40.957 40.1426C42.8258 39.6852 44.773 39.9102 46.6174 40.3747C48.3865 40.7926 50.1016 41.4157 51.7287 42.2314C53.1997 42.9996 54.594 44.0504 55.4537 45.5058C56.235 46.8285 56.6215 48.4748 56.2349 49.9903C56.022 50.7726 55.6129 51.4863 55.047 52.0627C54.4647 52.6845 53.7976 53.2236 53.2547 53.8832C52.4337 54.8806 51.882 56.5152 52.6914 57.695C52.8669 57.9532 53.1026 58.164 53.3778 58.3087C53.7084 58.4824 54.002 57.9777 53.6705 57.8035C53.0884 57.4976 52.877 56.8767 52.8927 56.2437C52.924 55.5253 53.1962 54.8389 53.6647 54.2969C54.2334 53.6074 54.9365 53.0492 55.5369 52.3901C56.1179 51.7758 56.5431 51.029 56.7764 50.2132C57.2031 48.6354 56.8694 46.9169 56.1141 45.4954C55.2967 43.9571 53.9267 42.7956 52.4357 41.9514C50.8131 41.0328 49.0097 40.4171 47.2192 39.9281C45.298 39.4035 43.2807 39.1081 41.3037 39.4712C39.5899 39.7859 37.915 40.6206 36.8373 42.033C35.8313 43.3513 35.3507 45.1481 35.8371 46.7704C36.0681 47.5049 36.4888 48.164 37.0561 48.68C37.6233 49.1959 38.3166 49.5501 39.0646 49.706C39.8251 49.8471 40.6103 49.7437 41.3095 49.4105C42.0628 49.0699 42.747 48.5405 43.5481 48.3141C43.9075 48.2032 44.293 48.2136 44.646 48.3436C44.9967 48.4739 45.148 47.9087 44.8002 47.7794Z" fill="#141414"/>
<path d="M115.722 87.4082V78.0978C115.722 69.9705 119.236 62.1762 125.507 57.0748C130.194 53.2618 136.983 50.4105 146.708 51.0477L143.003 36.0957L175 58.1839L143.677 80.272L146.876 66.1696C146.876 66.1696 127.341 62.4316 115.722 87.4082Z" fill="#141414"/>
<path d="M133.114 40.8255C132.701 40.4893 132.396 40.037 132.238 39.526C132.08 39.015 132.075 38.4681 132.225 37.9545C132.375 37.4409 132.673 36.9837 133.08 36.6407C133.487 36.2976 133.986 36.0842 134.514 36.0274L156.74 33.633C157.071 33.5977 157.403 33.6964 157.662 33.9075C157.921 34.1186 158.087 34.4247 158.122 34.7589L158.026 34.7693L158.122 34.7589L158.425 37.6211C158.443 37.7866 158.428 37.954 158.381 38.1137C158.335 38.2734 158.257 38.4223 158.154 38.5519C158.05 38.6814 157.922 38.7891 157.777 38.8688C157.632 38.9484 157.473 38.9985 157.309 39.0162L135.084 41.4106C134.987 41.421 134.891 41.4262 134.794 41.4262C134.182 41.4266 133.589 41.2145 133.114 40.8255Z" fill="#7633FF"/>
<path d="M139.661 60.5992V57.7208C139.661 57.3847 139.794 57.0625 140.029 56.8248C140.265 56.5872 140.584 56.4535 140.917 56.4531H164.696C165.029 56.4535 165.348 56.5872 165.584 56.8248C165.819 57.0625 165.952 57.3847 165.952 57.7208V60.5992C165.952 60.9353 165.819 61.2575 165.584 61.4952C165.348 61.7328 165.029 61.8665 164.696 61.8669H140.917C140.584 61.8665 140.265 61.7328 140.029 61.4952C139.794 61.2575 139.661 60.9353 139.661 60.5992Z" fill="#7633FF"/>
<path d="M128.292 60.7391C128.144 60.6646 128.013 60.5613 127.905 60.4352C127.797 60.3091 127.715 60.1626 127.664 60.0043L126.769 57.2709C126.665 56.9517 126.691 56.6038 126.841 56.3036C126.991 56.0035 127.252 55.7755 127.569 55.6698L150.148 48.1479C150.465 48.0425 150.81 48.0682 151.107 48.2194C151.405 48.3706 151.631 48.6349 151.735 48.9542L151.643 48.9848L151.735 48.9542L152.63 51.6875C152.734 52.0068 152.708 52.3546 152.558 52.6548C152.408 52.955 152.147 53.1829 151.83 53.2886L129.251 60.8105C129.094 60.8632 128.929 60.8839 128.764 60.8717C128.6 60.8594 128.439 60.8144 128.292 60.7391V60.7391Z" fill="#7633FF"/>
<path d="M157.894 61.5831L147.76 52.3645C147.513 52.1391 147.365 51.8241 147.348 51.4884C147.33 51.1528 147.446 50.824 147.669 50.5741L149.579 48.4363C149.802 48.1866 150.115 48.0366 150.447 48.0193C150.78 48.0019 151.106 48.1186 151.354 48.3437L161.487 57.5624C161.734 57.7877 161.883 58.1028 161.9 58.4384C161.917 58.774 161.802 59.1028 161.579 59.3527L159.669 61.4905C159.558 61.6145 159.425 61.7152 159.276 61.7868C159.127 61.8584 158.965 61.8994 158.8 61.9076C158.778 61.9088 158.756 61.9094 158.734 61.9094C158.423 61.9098 158.124 61.7935 157.894 61.5831Z" fill="#7633FF"/>
<path d="M132.131 28.4658C137.575 28.4658 141.989 24.0127 141.989 18.5195C141.989 13.0263 137.575 8.57324 132.131 8.57324C126.686 8.57324 122.273 13.0263 122.273 18.5195C122.273 24.0127 126.686 28.4658 132.131 28.4658Z" fill="#7633FF"/>
<path d="M120.593 57.9927C119.903 56.8038 119.54 55.451 119.54 54.0733C119.54 52.6957 119.903 51.3429 120.593 50.1539L131.043 31.8926C131.153 31.6999 131.312 31.5399 131.503 31.4286C131.694 31.3174 131.91 31.2588 132.131 31.2588C132.351 31.2588 132.568 31.3174 132.759 31.4286C132.95 31.5399 133.109 31.6999 133.219 31.8926L149.309 60.0107C149.42 60.2034 149.478 60.422 149.478 60.6445C149.478 60.8671 149.42 61.0857 149.309 61.2784C149.199 61.4711 149.04 61.6311 148.849 61.7424C148.658 61.8536 148.442 61.9122 148.221 61.9122H127.322C125.956 61.9204 124.613 61.5617 123.431 60.8728C122.248 60.184 121.269 59.1899 120.593 57.9927Z" fill="#E4E4E5"/>
<path d="M140.257 22.3049C140.896 22.287 141.691 22.2647 142.304 21.8131C142.486 21.6731 142.636 21.4946 142.743 21.29C142.85 21.0855 142.911 20.8598 142.922 20.6288C142.933 20.4647 142.907 20.3002 142.844 20.1481C142.782 19.9961 142.686 19.8607 142.563 19.7525C142.243 19.4796 141.776 19.4157 141.272 19.565L141.794 15.718L141.411 15.665L140.797 20.1877L141.117 20.0396C141.488 19.868 141.997 19.7808 142.313 20.0503C142.391 20.1209 142.451 20.2085 142.49 20.3064C142.529 20.4044 142.544 20.51 142.536 20.615C142.527 20.7869 142.481 20.9548 142.401 21.1072C142.322 21.2595 142.211 21.3929 142.076 21.4981C141.599 21.8495 140.965 21.8948 140.246 21.9151L140.257 22.3049Z" fill="#141414"/>
<path d="M139.198 16.0498H137.116V16.4399H139.198V16.0498Z" fill="#141414"/>
<path d="M126.286 6.78899C126.012 5.66012 125.505 4.60249 124.797 3.6856C124.089 2.76872 123.197 2.01334 122.179 1.46911C121.135 0.927887 119.985 0.62802 118.812 0.591299C117.639 0.554577 116.473 0.781921 115.398 1.25682C114.297 1.73265 113.319 2.45752 112.54 3.3754C111.761 4.29328 111.201 5.3796 110.905 6.55041C110.599 7.72825 110.557 8.95981 110.781 10.1561C111.056 11.4233 111.589 12.6188 112.346 13.6669C113.11 14.7826 114.008 15.7952 114.832 16.8642C115.659 17.9354 116.413 19.0627 117.087 20.2381C119.118 23.7796 120.406 27.7046 120.871 31.7693C121.028 32.997 121.058 34.2379 120.959 35.4718C120.737 37.8679 119.817 40.2148 117.706 41.5186C116.583 42.2118 115.287 42.5697 114.005 42.8201C112.567 43.1277 111.094 43.2438 109.626 43.1654C107.143 42.9874 104.659 41.9422 103.217 39.8136C102.898 39.3395 102.648 38.8216 102.475 38.2758C102.361 37.9166 102.92 37.7628 103.035 38.1202C103.798 40.5088 106.116 41.9812 108.461 42.4301C109.922 42.677 111.413 42.6756 112.873 42.4258C114.2 42.226 115.567 41.9493 116.783 41.3588C117.887 40.839 118.803 39.9844 119.404 38.914C119.946 37.8807 120.275 36.7469 120.369 35.5814C120.627 33.0297 120.207 30.388 119.576 27.9199C118.902 25.2784 117.868 22.7441 116.503 20.3894C115.822 19.2128 115.058 18.0863 114.22 17.0182C113.389 15.9616 112.503 14.9457 111.754 13.8265C111.014 12.7707 110.493 11.5753 110.222 10.3117C109.991 9.09927 110.012 7.8517 110.285 6.64811C110.547 5.46027 111.061 4.34379 111.792 3.37517C112.522 2.40656 113.452 1.60872 114.516 1.03635C116.605 -0.0755343 119.151 -0.341751 121.385 0.477553C123.554 1.28492 125.319 2.92315 126.297 5.03622C126.532 5.54879 126.716 6.08389 126.845 6.63346C126.93 6.99966 126.371 7.15595 126.286 6.789V6.78899Z" fill="#141414"/>
<path d="M124.402 7.26469C124.038 6.21936 123.306 5.34586 122.344 4.81118C121.382 4.2765 120.259 4.11814 119.189 4.36639C118.826 4.45205 118.671 3.88806 119.035 3.80221C120.254 3.50052 121.541 3.67334 122.639 4.28623C123.737 4.89912 124.566 5.90706 124.961 7.10915C125.082 7.46597 124.522 7.61922 124.402 7.26469Z" fill="#141414"/>
<path d="M124.313 9.37888C124.202 9.11748 124.199 8.82234 124.303 8.5582C124.407 8.29407 124.611 8.0825 124.87 7.9699L127.534 6.8147C127.793 6.70237 128.086 6.69847 128.348 6.80385C128.61 6.90924 128.819 7.11528 128.931 7.37666C129.042 7.63803 129.046 7.93332 128.941 8.19757C128.837 8.46182 128.633 8.67338 128.374 8.78571L125.71 9.94091C125.451 10.0532 125.158 10.0571 124.896 9.95171C124.634 9.84631 124.425 9.64026 124.313 9.37888Z" fill="#141414"/>
<path d="M130.87 64.1966L128.026 63.9637C127.694 63.9361 127.387 63.7768 127.171 63.5207C126.955 63.2645 126.849 62.9326 126.876 62.5976L128.684 40.1199C128.713 39.7655 128.81 39.4201 128.971 39.1037C129.131 38.7872 129.352 38.5058 129.621 38.2755C129.889 38.0451 130.2 37.8705 130.536 37.7614C130.871 37.6523 131.224 37.611 131.576 37.6397C131.927 37.6685 132.269 37.7668 132.583 37.9291C132.896 38.0913 133.175 38.3143 133.403 38.5853C133.632 38.8563 133.805 39.17 133.913 39.5085C134.021 39.847 134.061 40.2036 134.033 40.558L132.224 63.0356C132.198 63.3527 132.056 63.6485 131.824 63.8643C131.592 64.0802 131.289 64.2003 130.974 64.2008C130.939 64.2008 130.905 64.1994 130.87 64.1966Z" fill="#7633FF"/>
<path d="M2.50702 19.4416C1.49075 17.0445 2.88381 13.9172 5.33521 13.0926C7.78662 12.2679 10.7611 13.9259 11.374 16.4587C10.9777 15.4834 10.8111 14.4286 10.8873 13.3773C10.9634 12.326 11.2802 11.3069 11.8128 10.4001C12.3454 9.49327 13.0793 8.72346 13.9566 8.15121C14.834 7.57896 15.831 7.21987 16.8692 7.10218C17.9075 6.98449 18.9586 7.1114 19.9399 7.47295C20.9213 7.83449 21.8062 8.4208 22.5249 9.18577C23.2437 9.95075 23.7768 10.8735 24.0823 11.8815C24.3877 12.8896 24.4572 13.9553 24.2854 14.9951C25.7631 12.7971 28.9338 11.967 31.2843 13.1627C33.6348 14.3584 34.8587 17.424 33.9859 19.9297L1.6323 19.8714" fill="#F8F9FA"/>
<path d="M68.0352 46.7443C67.0189 44.3472 68.4119 41.22 70.8634 40.3953C73.3148 39.5706 76.2892 41.2286 76.9022 43.7614C76.5059 42.7861 76.3393 41.7313 76.4154 40.6801C76.4915 39.6288 76.8084 38.6097 77.341 37.7028C77.8736 36.796 78.6074 36.0262 79.4848 35.4539C80.3622 34.8817 81.3592 34.5226 82.3974 34.4049C83.4356 34.2872 84.4867 34.4141 85.4681 34.7757C86.4494 35.1372 87.3343 35.7235 88.0531 36.4885C88.7718 37.2535 89.3049 38.1763 89.6104 39.1843C89.9159 40.1923 89.9854 41.2581 89.8135 42.2978C91.2912 40.0998 94.4619 39.2697 96.8125 40.4654C99.163 41.6611 100.387 44.7267 99.5141 47.2324L67.1604 47.1741" fill="#F8F9FA"/>
</g>
<defs>
<clipPath id="clip0_3539_19069">
<rect width="175" height="126" fill="white"/>
</clipPath>
</defs>
</svg>
