<svg width="28" height="28" viewBox="0 0 28 28" fill="none" xmlns="http://www.w3.org/2000/svg">
<path d="M23.8597 9.13243C23.7449 9.2043 21.0121 10.721 21.0121 14.0838C21.1409 17.9188 24.4608 19.2638 24.5177 19.2638C24.4608 19.3356 24.0165 21.0959 22.7005 22.9411C21.6561 24.5306 20.4969 26.1331 18.7367 26.1331C17.0623 26.1331 16.4612 25.0738 14.5292 25.0738C12.4544 25.0738 11.8673 26.1331 10.2788 26.1331C8.51855 26.1331 7.27348 24.4447 6.17215 22.8702C4.74135 20.8094 3.52521 17.5754 3.48228 14.4702C3.45335 12.8247 3.76881 11.2072 4.56961 9.83336C5.69988 7.91536 7.71775 6.61336 9.92135 6.57043C11.6097 6.5135 13.1124 7.72963 14.1428 7.72963C15.1303 7.72963 16.9764 6.57043 19.0652 6.57043C19.9668 6.57136 22.3711 6.84296 23.8597 9.13243ZM14 6.2419C13.6995 4.73923 14.5292 3.23656 15.302 2.27803C16.2895 1.11883 17.8491 0.332031 19.194 0.332031C19.2799 1.8347 18.7357 3.30843 17.7632 4.38176C16.8905 5.54096 15.3879 6.41363 14 6.2419Z" fill="#141414"/>
</svg>
