<svg width="28" height="28" viewBox="0 0 28 28" fill="none" xmlns="http://www.w3.org/2000/svg">
<path d="M14 2C7.3724 2 2 7.3724 2 14C2 20.6276 7.3724 26 14 26C20.6276 26 26 20.6276 26 14C26 7.3724 20.6276 2 14 2Z" fill="url(#paint0_linear_3775_5441)"/>
<path d="M14.5779 16.0926H17.5973L18.0715 13.0254H14.5779V11.3489C14.5779 10.0749 14.9944 8.94502 16.1862 8.94502H18.1013V6.26869C17.7647 6.22319 17.053 6.12402 15.7084 6.12402C12.9003 6.12402 11.2541 7.60686 11.2541 10.9855V13.026H8.36719V16.0932H11.2535V24.5235C11.8252 24.6087 12.4044 24.667 12.9989 24.667C13.5361 24.667 14.0605 24.618 14.5779 24.548V16.0926Z" fill="white"/>
<defs>
<linearGradient id="paint0_linear_3775_5441" x1="5.5958" y1="5.5958" x2="23.969" y2="23.969" gradientUnits="userSpaceOnUse">
<stop stop-color="#2AA4F4"/>
<stop offset="1" stop-color="#007AD9"/>
</linearGradient>
</defs>
</svg>
