<svg width="24" height="24" viewBox="0 0 24 24" fill="none" xmlns="http://www.w3.org/2000/svg">
<rect width="24" height="24" fill="white"/>
<path d="M12.0073 8.99943H17.2873C17.5303 8.99943 17.7673 9.02268 17.9968 9.06768V7.12743C17.9968 6.09243 18.8353 5.25243 19.8695 5.25243H20.735C20.882 5.25243 21.002 5.13243 21.002 4.98543V4.11318C21.002 3.91218 21.1648 3.74943 21.365 3.74943C21.992 3.74943 22.4998 4.25793 22.4998 4.88493V6.37668C22.4998 7.41168 21.6613 8.25168 20.627 8.25168H19.7623C19.7272 8.25168 19.6925 8.25859 19.6601 8.272C19.6277 8.28542 19.5983 8.30509 19.5735 8.32988C19.5487 8.35468 19.529 8.38411 19.5156 8.4165C19.5022 8.4489 19.4953 8.48362 19.4953 8.51868V9.73443C19.9544 10.0781 20.3271 10.5241 20.5836 11.0371C20.8401 11.5501 20.9733 12.1159 20.9728 12.6894V18.0744C20.9728 18.5116 20.8241 18.9358 20.5513 19.2774L18.1258 22.3134C18.0795 22.3715 18.0208 22.4184 17.9539 22.4506C17.887 22.4828 17.8137 22.4995 17.7395 22.4994H16.8268C16.7944 22.4995 16.7628 22.4905 16.7353 22.4735C16.7077 22.4566 16.6855 22.4323 16.671 22.4034C16.6565 22.3745 16.6504 22.3422 16.6533 22.31C16.6561 22.2778 16.6679 22.2471 16.6873 22.2212L18.3665 19.9794C18.6529 19.5975 18.7759 19.1175 18.7084 18.6449C18.6409 18.1723 18.3884 17.7459 18.0065 17.4594L16.1225 16.0442C15.8677 15.8528 15.5577 15.7493 15.239 15.7494H9.23601C8.72908 15.75 8.22744 15.6464 7.76226 15.4449C7.7263 15.4295 7.68655 15.4253 7.64817 15.4328C7.60978 15.4403 7.57454 15.4592 7.54701 15.4869L6.88701 16.1469C6.83987 16.194 6.8027 16.2501 6.77771 16.3119C6.75271 16.3737 6.74041 16.4399 6.74153 16.5065C6.74265 16.5731 6.75717 16.6388 6.78423 16.6997C6.81128 16.7606 6.85032 16.8154 6.89901 16.8609L7.84551 17.8164C7.96294 17.9336 8.12209 17.9995 8.28801 17.9994H8.63076C8.82876 17.9994 8.98926 18.1607 8.98926 18.3587V19.1409C8.98926 19.1881 8.97996 19.2348 8.9619 19.2783C8.94383 19.3218 8.91736 19.3614 8.88399 19.3947C8.85062 19.428 8.81101 19.4544 8.76743 19.4724C8.72385 19.4903 8.67715 19.4995 8.63001 19.4994H8.28801C8.00898 19.5002 7.73258 19.4456 7.47483 19.3388C7.21708 19.2319 6.98311 19.0749 6.78651 18.8769L5.85276 17.9349C5.46916 17.5562 5.25057 17.0414 5.24451 16.5024C5.2433 16.2395 5.29432 15.9789 5.39462 15.7358C5.49491 15.4928 5.64248 15.272 5.82876 15.0864L6.30951 14.6042C6.34347 14.57 6.36369 14.5245 6.36632 14.4764C6.36895 14.4283 6.3538 14.3809 6.32376 14.3432C5.90775 13.8205 5.64037 13.1953 5.54976 12.5334L4.71726 6.49968C4.71263 6.46614 4.70042 6.4341 4.68156 6.40599C4.66269 6.37787 4.63767 6.35443 4.60839 6.33744C4.5791 6.32045 4.54633 6.31035 4.51256 6.30793C4.4788 6.3055 4.44492 6.3108 4.41351 6.32343L3.34251 6.75543L2.38776 5.03793L3.57126 3.75543H2.96601C2.93951 3.7553 2.91335 3.74946 2.88931 3.73832C2.86526 3.72717 2.84391 3.71098 2.82668 3.69084C2.80946 3.6707 2.79678 3.64709 2.7895 3.62161C2.78222 3.59613 2.78052 3.56938 2.78451 3.54318C2.83526 3.1844 3.0138 2.856 3.28731 2.61832C3.56081 2.38064 3.91091 2.24965 4.27326 2.24943H4.81326V1.70193C4.81336 1.66569 4.82318 1.63014 4.84171 1.59899C4.86024 1.56784 4.88678 1.54223 4.91858 1.52484C4.95037 1.50745 4.98626 1.49891 5.02248 1.50011C5.0587 1.50131 5.09393 1.51222 5.12451 1.53168L6.08001 2.24718H10.0003C10.1765 2.24718 10.3198 2.39043 10.3198 2.56743C10.3198 3.06468 10.061 3.50043 9.67101 3.74868H11.672C11.852 3.74868 11.9983 3.89568 11.9983 4.07568C11.9988 4.45668 11.9048 4.83185 11.7247 5.16759C11.5445 5.50333 11.284 5.78914 10.9663 5.99943H12.9028C13.0738 5.99943 13.2118 6.13818 13.2118 6.30918C13.2123 6.85599 13.0638 7.3926 12.7822 7.86132C12.5006 8.33004 12.0965 8.71314 11.6135 8.96943C11.7425 8.98893 11.8745 8.99943 12.008 8.99943H12.0073ZM4.87476 4.91418C4.97421 4.91418 5.0696 4.87467 5.13992 4.80435C5.21025 4.73402 5.24976 4.63864 5.24976 4.53918V4.12443C5.25202 4.07382 5.24401 4.02328 5.2262 3.97586C5.2084 3.92843 5.18117 3.88511 5.14616 3.84849C5.11115 3.81188 5.06908 3.78274 5.0225 3.76284C4.97592 3.74293 4.92579 3.73266 4.87513 3.73266C4.82447 3.73266 4.77434 3.74293 4.72776 3.76284C4.68118 3.78274 4.63911 3.81188 4.6041 3.84849C4.56909 3.88511 4.54186 3.92843 4.52406 3.97586C4.50625 4.02328 4.49824 4.07382 4.50051 4.12443V4.53993C4.50051 4.63939 4.54002 4.73477 4.61034 4.8051C4.68067 4.87542 4.77605 4.91493 4.87551 4.91493L4.87476 4.91418Z" fill="#141414"/>
<path d="M2.12001 5.32812L1.71276 5.77062C1.62644 5.86399 1.56354 5.97653 1.52925 6.09897C1.49496 6.22142 1.49025 6.35026 1.51551 6.47488C1.62051 6.99013 2.13051 7.24587 2.61801 7.04862L2.99226 6.89787L2.12001 5.32812ZM4.71876 11.9994H4.23876C3.97671 11.9995 3.71725 12.0512 3.47519 12.1516C3.23314 12.252 3.01323 12.3991 2.82804 12.5845C2.64285 12.7699 2.496 12.99 2.39587 13.2321C2.29575 13.4743 2.24432 13.7338 2.24451 13.9959V15.7659C2.24451 16.3336 2.46576 16.8676 2.86701 17.2689L3.16101 17.5629C3.18749 17.5894 3.21893 17.6105 3.25355 17.6248C3.28817 17.6392 3.32528 17.6466 3.36276 17.6466C3.40024 17.6466 3.43736 17.6392 3.47198 17.6248C3.5066 17.6105 3.53804 17.5894 3.56451 17.5629L4.21926 16.9059C4.27267 16.8523 4.30265 16.7798 4.30265 16.7041C4.30265 16.6285 4.27267 16.5559 4.21926 16.5024L3.92526 16.2084C3.80826 16.0908 3.74248 15.9317 3.74226 15.7659V13.9959C3.74226 13.7214 3.96501 13.4994 4.23876 13.4994H5.01426C4.91662 13.2192 4.84703 12.93 4.80651 12.6361L4.71876 11.9994ZM14.2318 16.5001V17.3814C14.2317 17.4756 14.2131 17.5689 14.1769 17.6559C14.1407 17.7429 14.0878 17.8219 14.021 17.8884L13.3595 18.5469C13.1605 18.7453 13.0027 18.9813 12.8953 19.241C12.788 19.5008 12.7331 19.7793 12.734 20.0604V20.7631C12.734 20.8936 12.839 21.0001 12.9703 21.0001H13.9955C14.0582 20.9999 14.1183 20.9749 14.1626 20.9304C14.2069 20.886 14.2318 20.8259 14.2318 20.7631V20.0596C14.2318 19.8901 14.2993 19.7274 14.4193 19.6074L16.6468 17.3769L15.6718 16.6449C15.547 16.551 15.3951 16.5002 15.239 16.5001H14.2318Z" fill="#141414"/>
</svg>
