<svg width="21" height="8" viewBox="0 0 21 8" fill="none" xmlns="http://www.w3.org/2000/svg">
<path d="M15.539 1.186C15.0741 1.01661 14.5827 0.931613 14.088 0.935004C12.488 0.935004 11.358 1.741 11.35 2.898C11.34 3.748 12.153 4.227 12.768 4.511C13.399 4.803 13.61 4.987 13.608 5.248C13.604 5.645 13.104 5.825 12.639 5.825C12 5.825 11.651 5.736 11.114 5.513L10.915 5.42L10.688 6.752C11.077 6.914 11.778 7.053 12.502 7.065C14.203 7.065 15.315 6.264 15.328 5.033C15.342 4.354 14.902 3.841 13.976 3.417C13.413 3.142 13.064 2.958 13.064 2.679C13.064 2.432 13.363 2.168 13.988 2.168C14.4039 2.15794 14.8173 2.23598 15.201 2.397L15.351 2.464L15.578 1.177L15.539 1.186ZM19.691 1.043H18.441C18.052 1.043 17.759 1.15 17.589 1.536L15.185 6.982H16.886L17.226 6.089L19.302 6.091C19.351 6.3 19.501 6.982 19.501 6.982H21.001L19.691 1.043ZM9.04899 0.993003H10.67L9.65599 6.935H8.03699L9.04899 0.991003V0.993003ZM4.93399 4.268L5.10199 5.093L6.68599 1.043H8.40299L5.85199 6.974H4.13899L2.73899 1.952C2.71631 1.86919 2.66306 1.79808 2.58999 1.753C2.08539 1.49234 1.55073 1.29453 0.997986 1.164L1.01999 1.039H3.62899C3.98299 1.053 4.26799 1.164 4.36299 1.542L4.93299 4.271V4.268H4.93399ZM17.691 4.874L18.337 3.212C18.329 3.23 18.47 2.869 18.552 2.646L18.663 3.159L19.038 4.873H17.69V4.874H17.691Z" fill="#141414"/>
</svg>
